<svg id="Warstwa_1" data-name="Warstwa 1" xmlns="http://www.w3.org/2000/svg" xmlns:xlink="http://www.w3.org/1999/xlink" viewBox="0 0 813.24 601"><defs><style>.cls-1,.cls-2,.cls-7,.cls-8{fill:none;}.cls-2{clip-rule:evenodd;}.cls-3{clip-path:url(#clip-path);}.cls-4{clip-path:url(#clip-path-2);}.cls-5{fill:#034f8e;}.cls-6{fill:#4881ae;}.cls-7,.cls-8{stroke:#034f8e;stroke-miterlimit:10;}.cls-7{stroke-width:0.92px;}.cls-8{stroke-width:1.02px;}.cls-9{fill:#fff;}.cls-10{fill:#e52521;}.cls-11{clip-path:url(#clip-path-3);}.cls-12{clip-path:url(#clip-path-4);}.cls-13{clip-path:url(#clip-path-5);}.cls-14{clip-path:url(#clip-path-6);}.cls-15{clip-path:url(#clip-path-7);}.cls-16{clip-path:url(#clip-path-8);}.cls-17{clip-path:url(#clip-path-9);}.cls-18{clip-path:url(#clip-path-10);}.cls-19{clip-path:url(#clip-path-11);}.cls-20{clip-path:url(#clip-path-12);}.cls-21{clip-path:url(#clip-path-13);}.cls-22{clip-path:url(#clip-path-14);}.cls-23{clip-path:url(#clip-path-15);}.cls-24{clip-path:url(#clip-path-16);}.cls-25{clip-path:url(#clip-path-17);}.cls-26{clip-path:url(#clip-path-18);}.cls-27{clip-path:url(#clip-path-19);}.cls-28{clip-path:url(#clip-path-20);}.cls-29{clip-path:url(#clip-path-21);}.cls-30{clip-path:url(#clip-path-22);}.cls-31{clip-path:url(#clip-path-23);}.cls-32{clip-path:url(#clip-path-24);}.cls-33{clip-path:url(#clip-path-25);}.cls-34{clip-path:url(#clip-path-26);}.cls-35{clip-path:url(#clip-path-27);}.cls-36{clip-path:url(#clip-path-28);}.cls-37{clip-path:url(#clip-path-29);}</style><clipPath id="clip-path"><ellipse class="cls-1" cx="-662.8" cy="1042.98" rx="101.5" ry="101"/></clipPath><clipPath id="clip-path-2"><ellipse class="cls-1" cx="-983.8" cy="1042.98" rx="101.5" ry="101"/></clipPath><clipPath id="clip-path-3"><rect class="cls-1" x="93.8" y="1787.28" width="595.06" height="149.99" rx="11.07"/></clipPath><clipPath id="clip-path-4"><rect class="cls-1" x="86.42" y="1979.45" width="661.16" height="1.06"/></clipPath><clipPath id="clip-path-5"><rect class="cls-1" x="63.06" y="1966.81" width="661.16" height="1.06"/></clipPath><clipPath id="clip-path-6"><rect class="cls-1" x="63.06" y="1936.96" width="661.16" height="1.06"/></clipPath><clipPath id="clip-path-7"><rect class="cls-1" x="63.06" y="1907.12" width="661.16" height="1.06"/></clipPath><clipPath id="clip-path-8"><rect class="cls-1" x="63.06" y="1877.27" width="661.16" height="1.06"/></clipPath><clipPath id="clip-path-9"><rect class="cls-1" x="63.06" y="1847.43" width="661.16" height="1.06"/></clipPath><clipPath id="clip-path-10"><rect class="cls-1" x="63.06" y="1817.58" width="661.16" height="1.06"/></clipPath><clipPath id="clip-path-11"><rect class="cls-1" x="63.06" y="1787.73" width="661.16" height="1.06"/></clipPath><clipPath id="clip-path-12"><rect class="cls-1" x="63.06" y="1757.89" width="661.16" height="1.06"/></clipPath><clipPath id="clip-path-13"><rect class="cls-1" x="63.06" y="1728.04" width="661.16" height="1.06"/></clipPath><clipPath id="clip-path-14"><rect class="cls-1" x="63.06" y="1698.19" width="661.16" height="1.06"/></clipPath><clipPath id="clip-path-15"><rect class="cls-1" x="63.06" y="1668.35" width="661.16" height="1.06"/></clipPath><clipPath id="clip-path-16"><rect class="cls-1" x="63.06" y="1638.5" width="661.16" height="1.06"/></clipPath><clipPath id="clip-path-17"><rect class="cls-1" x="63.06" y="1608.65" width="661.16" height="1.06"/></clipPath><clipPath id="clip-path-18"><rect class="cls-1" x="63.06" y="1578.81" width="661.16" height="1.06"/></clipPath><clipPath id="clip-path-19"><rect class="cls-1" x="63.06" y="1548.96" width="661.16" height="1.06"/></clipPath><clipPath id="clip-path-20"><rect class="cls-1" x="63.06" y="1519.11" width="661.16" height="1.06"/></clipPath><clipPath id="clip-path-21"><rect class="cls-1" x="510.05" y="1581.96" width="178.27" height="181.96" rx="13.52"/></clipPath><clipPath id="clip-path-22"><rect class="cls-1" x="93.26" y="1581.96" width="178.27" height="181.96" rx="13.52"/></clipPath><clipPath id="clip-path-23"><rect class="cls-1" x="302.27" y="1581.96" width="178.27" height="181.96" rx="13.52"/></clipPath><clipPath id="clip-path-24"><rect class="cls-1" x="324.94" y="1617.61" width="130.32" height="111.88"/></clipPath><clipPath id="clip-path-25"><rect class="cls-1" x="533.95" y="1617.61" width="130.32" height="111.88"/></clipPath><clipPath id="clip-path-26"><rect class="cls-1" x="117.16" y="1617.61" width="130.32" height="111.88"/></clipPath><clipPath id="clip-path-27"><rect class="cls-1" x="557.31" y="1636.94" width="82.37" height="71.31"/></clipPath><clipPath id="clip-path-28"><rect class="cls-1" x="136.51" y="1634.82" width="93.44" height="79.91"/></clipPath><clipPath id="clip-path-29"><path class="cls-2" d="M355.71,1675c-.07-18.33,13.12-31.58,31.42-31.56,17.91,0,31.76,13.89,31.62,31.68a31.81,31.81,0,0,1-31.21,31.34h-.41C369.47,1706.47,355.78,1692.8,355.71,1675Zm31.14-39.29c-20.74.09-38.8,18.32-38.87,39.07v.59c.27,20.76,18,38.1,39,38.13h.11a38.64,38.64,0,0,0,38.66-38.4v-.68c-.19-21-17.7-38.63-38.62-38.71Z"/></clipPath></defs><title>dlaczego3</title><rect class="cls-5" width="813.24" height="601"/><rect class="cls-6" x="272.48" y="165.88" width="267.29" height="267.29" rx="39.59"/><rect class="cls-6" x="272.48" y="165.88" width="267.29" height="267.29" rx="39.59"/><line class="cls-7" x1="682.02" y1="520.16" x2="682.02" y2="80.14"/><line class="cls-7" x1="649.75" y1="520.16" x2="649.75" y2="80.14"/><line class="cls-7" x1="617.48" y1="520.16" x2="617.48" y2="80.14"/><line class="cls-7" x1="585.22" y1="520.16" x2="585.22" y2="80.14"/><line class="cls-7" x1="552.95" y1="520.16" x2="552.95" y2="80.14"/><line class="cls-7" x1="520.68" y1="520.16" x2="520.68" y2="80.14"/><line class="cls-7" x1="488.41" y1="520.16" x2="488.41" y2="80.14"/><line class="cls-7" x1="456.14" y1="520.16" x2="456.14" y2="80.14"/><line class="cls-7" x1="423.88" y1="520.16" x2="423.88" y2="80.14"/><line class="cls-7" x1="391.61" y1="520.16" x2="391.61" y2="80.14"/><line class="cls-7" x1="359.34" y1="520.16" x2="359.34" y2="80.14"/><line class="cls-7" x1="327.07" y1="520.16" x2="327.07" y2="80.14"/><line class="cls-7" x1="294.81" y1="520.16" x2="294.81" y2="80.14"/><line class="cls-7" x1="262.54" y1="520.16" x2="262.54" y2="80.14"/><line class="cls-7" x1="230.27" y1="520.16" x2="230.27" y2="80.14"/><line class="cls-7" x1="198" y1="520.16" x2="198" y2="80.14"/><line class="cls-7" x1="165.74" y1="520.16" x2="165.74" y2="80.14"/><line class="cls-8" x1="110.51" y1="526.29" x2="737.24" y2="526.29"/><line class="cls-8" x1="110.51" y1="498.03" x2="737.24" y2="498.03"/><line class="cls-8" x1="110.51" y1="469.76" x2="737.24" y2="469.76"/><line class="cls-8" x1="110.51" y1="441.49" x2="737.24" y2="441.49"/><line class="cls-8" x1="110.51" y1="413.22" x2="737.24" y2="413.22"/><line class="cls-8" x1="110.51" y1="384.95" x2="737.24" y2="384.95"/><line class="cls-8" x1="110.51" y1="356.68" x2="737.24" y2="356.68"/><line class="cls-8" x1="110.51" y1="328.42" x2="737.24" y2="328.42"/><line class="cls-8" x1="110.51" y1="300.15" x2="737.24" y2="300.15"/><line class="cls-8" x1="110.51" y1="271.88" x2="737.24" y2="271.88"/><line class="cls-8" x1="110.51" y1="243.61" x2="737.24" y2="243.61"/><line class="cls-8" x1="110.51" y1="215.34" x2="737.24" y2="215.34"/><line class="cls-8" x1="110.51" y1="187.07" x2="737.24" y2="187.07"/><line class="cls-8" x1="110.51" y1="158.81" x2="737.24" y2="158.81"/><line class="cls-8" x1="110.51" y1="130.54" x2="737.24" y2="130.54"/><line class="cls-8" x1="110.51" y1="102.27" x2="737.24" y2="102.27"/><line class="cls-8" x1="110.51" y1="74" x2="737.24" y2="74"/><circle class="cls-9" cx="104.05" cy="197.92" r="28.38"/><circle class="cls-9" cx="104.05" cy="401.13" r="28.38"/><circle class="cls-9" cx="607.51" cy="197.92" r="28.38"/><rect class="cls-9" x="579.14" y="271.15" width="56.75" height="56.75"/><rect class="cls-9" x="473.87" y="74" width="56.75" height="56.75"/><rect class="cls-9" x="675.25" y="372.75" width="56.75" height="56.75"/><polygon class="cls-9" points="703.75 161.26 720.94 191.04 738.14 220.82 703.75 220.82 669.36 220.82 686.56 191.04 703.75 161.26"/><polygon class="cls-9" points="607.51 435 590.32 405.22 573.13 375.44 607.51 375.44 641.9 375.44 624.71 405.22 607.51 435"/><polygon class="cls-9" points="673.73 496.78 703.51 479.59 733.29 462.39 733.29 496.78 733.29 531.17 703.51 513.97 673.73 496.78"/><circle class="cls-9" cx="202" cy="105.12" r="28.38"/><polygon class="cls-9" points="397.37 74 414.57 103.78 431.76 133.56 397.37 133.56 362.99 133.56 380.18 103.78 397.37 74"/><circle class="cls-9" cx="202" cy="401.13" r="28.38"/><rect class="cls-9" x="173.62" y="271.15" width="56.75" height="56.75" transform="translate(404 599.05) rotate(180)"/><rect class="cls-9" x="279.23" y="467.81" width="56.75" height="56.75" transform="translate(615.21 992.37) rotate(180)"/><circle class="cls-9" cx="508.59" cy="493.38" r="28.38"/><polygon class="cls-9" points="412.48 524.56 395.28 494.78 378.09 465 412.48 465 446.87 465 429.67 494.78 412.48 524.56"/><polygon class="cls-9" points="202 161.26 219.19 191.04 236.38 220.82 202 220.82 167.61 220.82 184.8 191.04 202 161.26"/><polygon class="cls-9" points="72.56 299.52 102.34 282.33 132.12 265.14 132.12 299.52 132.12 333.91 102.34 316.72 72.56 299.52"/><circle class="cls-10" cx="406.13" cy="299.52" r="28.38"/></svg>