<svg id="Warstwa_1" data-name="Warstwa 1" xmlns="http://www.w3.org/2000/svg" viewBox="0 0 183.79 98.6"><defs><style>.cls-1{fill:#004e8d;}</style></defs><title>eduklik-niebieskie</title><path class="cls-1" d="M70.28,55.84V40.56H80.56v3.1H73.84v2.9h6.35v3H73.84v3.17H81v3.15Z"/><path class="cls-1" d="M91.34,55.84v-1.4h0a3.28,3.28,0,0,1-1.48,1.26,5,5,0,0,1-4.2,0A5,5,0,0,1,84,54.41a5.69,5.69,0,0,1-1-1.83,6.78,6.78,0,0,1-.34-2.16A6.4,6.4,0,0,1,83,48.28a5.63,5.63,0,0,1,1-1.81,4.69,4.69,0,0,1,3.7-1.68A4.15,4.15,0,0,1,91,46.24h0V39.52H94.6V55.84Zm-.13-5.39a2.79,2.79,0,0,0-1.51-2.53,2.38,2.38,0,0,0-1.08-.24,2.45,2.45,0,0,0-1.11.24,2.53,2.53,0,0,0-.79.61,2.62,2.62,0,0,0-.49.88,3.18,3.18,0,0,0-.16,1,3.31,3.31,0,0,0,.16,1,2.62,2.62,0,0,0,.49.9,2.42,2.42,0,0,0,.79.62,2.45,2.45,0,0,0,1.11.24A2.38,2.38,0,0,0,89.7,53a2.73,2.73,0,0,0,.81-.62,2.91,2.91,0,0,0,.51-.89A2.74,2.74,0,0,0,91.21,50.45Z"/><path class="cls-1" d="M104.49,55.84V54.35h0a3,3,0,0,1-.5.7,3.51,3.51,0,0,1-.74.56,4.9,4.9,0,0,1-.93.39,3.69,3.69,0,0,1-1.07.15,3.91,3.91,0,0,1-1.82-.39,3.54,3.54,0,0,1-1.21-1,4,4,0,0,1-.67-1.4,6.18,6.18,0,0,1-.2-1.61V45.09h3.56v5.83a5.9,5.9,0,0,0,.06.86,2.39,2.39,0,0,0,.25.74,1.41,1.41,0,0,0,.49.51,1.55,1.55,0,0,0,.8.18,1.61,1.61,0,0,0,1.41-.69,2.7,2.7,0,0,0,.49-1.62V45.09h3.54V55.84Z"/><path class="cls-1" d="M122.22,55.84h-4.39l-3.52-5.16h-.06v5.16h-3.56V39.52h3.56v9.93h.06l3.44-4.36H122L117.9,50Z"/><path class="cls-1" d="M123.56,55.84V39.52h3.6V55.84Z"/><path class="cls-1" d="M133.79,41.66a1.76,1.76,0,0,1-.16.76,2,2,0,0,1-.43.62,2.06,2.06,0,0,1-.65.41,2.09,2.09,0,0,1-.79.15,2,2,0,0,1-1.45-.57,1.88,1.88,0,0,1-.58-1.37,1.93,1.93,0,0,1,.15-.75,1.78,1.78,0,0,1,.43-.61,2.37,2.37,0,0,1,.65-.43,2.12,2.12,0,0,1,1.59,0,2.06,2.06,0,0,1,.65.41,2.09,2.09,0,0,1,.43.62A1.8,1.8,0,0,1,133.79,41.66ZM130,55.84V45.09h3.54V55.84Z"/><path class="cls-1" d="M147.89,55.84h-4.38L140,50.68h-.07v5.16h-3.56V39.52h3.56v9.93H140l3.43-4.36h4.3L143.57,50Z"/><path class="cls-1" d="M73.39,61.51a1.68,1.68,0,0,1-.16.74,1.66,1.66,0,0,1-.42.52,1.81,1.81,0,0,1-.59.29,2.22,2.22,0,0,1-.67.1H70.33V59.88h1.18a3.25,3.25,0,0,1,.69.08,2,2,0,0,1,.6.27,1.37,1.37,0,0,1,.42.5A1.67,1.67,0,0,1,73.39,61.51Zm-.83,0a1,1,0,0,0-.09-.46.76.76,0,0,0-.24-.29,1,1,0,0,0-.34-.16,1.75,1.75,0,0,0-.4,0H71.1v1.91h.38a1.33,1.33,0,0,0,.4,0,.81.81,0,0,0,.35-.16.76.76,0,0,0,.24-.29A1.08,1.08,0,0,0,72.56,61.51Z"/><path class="cls-1" d="M74.25,63.16v-.69l1.56-1.92H74.29v-.67H76.8v.63l-1.59,2h1.62v.69Z"/><path class="cls-1" d="M77.9,63.16V59.88h.8v3.28Z"/><path class="cls-1" d="M79.93,63.16V59.88h2.2v.67H80.69v.62h1.36v.63H80.69v.68h1.53v.68Z"/><path class="cls-1" d="M83.29,63.16V59.88h.8v2.59h1.27v.69Z"/><path class="cls-1" d="M86.28,63.16V59.88h.8v3.28Z"/><path class="cls-1" d="M91.28,63.16l0-2.32h0l-.86,2.32h-.55l-.83-2.32h0l0,2.32h-.75V59.88h1.13l.74,2.1h0l.71-2.1h1.15v3.28Z"/><path class="cls-1" d="M94.88,61.77v1.39h-.8V61.77l-1.23-1.89h1l.7,1.21.7-1.21h.92Z"/><path class="cls-1" d="M100.27,60.73a.79.79,0,0,0-.27-.2.75.75,0,0,0-.31-.08h-.16a.34.34,0,0,0-.15.06.35.35,0,0,0-.11.1.25.25,0,0,0,0,.16.32.32,0,0,0,0,.14.43.43,0,0,0,.1.09l.16.08.21.07.35.12a1.74,1.74,0,0,1,.33.18.92.92,0,0,1,.24.28.76.76,0,0,1,.1.41,1.22,1.22,0,0,1-.1.49,1.16,1.16,0,0,1-.28.34,1.42,1.42,0,0,1-.41.2,1.76,1.76,0,0,1-.46.06,1.91,1.91,0,0,1-.68-.12,1.41,1.41,0,0,1-.55-.35l.52-.53a1,1,0,0,0,.31.25,1,1,0,0,0,.4.1l.17,0a.35.35,0,0,0,.14-.06.35.35,0,0,0,.1-.11.31.31,0,0,0,0-.17.3.3,0,0,0,0-.16.36.36,0,0,0-.13-.11,1,1,0,0,0-.21-.1l-.29-.1a1.66,1.66,0,0,1-.31-.12,1,1,0,0,1-.27-.17.88.88,0,0,1-.19-.27.84.84,0,0,1-.07-.37,1,1,0,0,1,.11-.47,1,1,0,0,1,.29-.32,1,1,0,0,1,.41-.18,1.76,1.76,0,0,1,.46-.06,1.71,1.71,0,0,1,.57.1,1.48,1.48,0,0,1,.5.3Z"/><path class="cls-1" d="M101.83,63.16V59.88h.79v3.28Z"/><path class="cls-1" d="M106,64.2a.87.87,0,0,1-.28,0l-.19,0a.53.53,0,0,1-.17-.08.37.37,0,0,1-.12-.13.38.38,0,0,1,0-.19.41.41,0,0,1,0-.19.72.72,0,0,1,.11-.19.75.75,0,0,1,.15-.16l.17-.13h-1.79V59.88h2.21v.67h-1.44v.62H106v.63h-1.36v.68h1.52v.68h-.08a1.55,1.55,0,0,0-.29.28.41.41,0,0,0-.12.26.16.16,0,0,0,0,.12.21.21,0,0,0,.13,0l.13,0,.12-.06.15.28A.86.86,0,0,1,106,64.2Z"/><path class="cls-1" d="M112.35,63.16h-.79l-.64-2.22h0l-.65,2.22h-.78l-.93-3.28h.85l.52,2.18h0l.58-2.18h.83l.58,2.18h0l.53-2.18h.82Z"/><path class="cls-1" d="M114.17,63.16V59.88h.8v3.28Z"/><path class="cls-1" d="M116.2,63.16V59.88h2.2v.67H117v.62h1.36v.63H117v.68h1.53v.68Z"/><path class="cls-1" d="M122.62,61.51a1.55,1.55,0,0,1-.16.74,1.42,1.42,0,0,1-.42.52,1.71,1.71,0,0,1-.59.29,2.16,2.16,0,0,1-.66.1h-1.23V59.88h1.19a3.08,3.08,0,0,1,.68.08,2,2,0,0,1,.61.27,1.48,1.48,0,0,1,.42.5A1.67,1.67,0,0,1,122.62,61.51Zm-.82,0a1,1,0,0,0-.09-.46.76.76,0,0,0-.24-.29,1.06,1.06,0,0,0-.34-.16,1.75,1.75,0,0,0-.4,0h-.39v1.91h.37a1.4,1.4,0,0,0,.41,0,.86.86,0,0,0,.35-.16.76.76,0,0,0,.24-.29A1.08,1.08,0,0,0,121.8,61.51Z"/><path class="cls-1" d="M123.49,63.16v-.69l1.56-1.92h-1.52v-.67H126v.63l-1.6,2h1.63v.69Z"/><path class="cls-1" d="M130,64.06a.86.86,0,0,1-.25.14.92.92,0,0,1-.28,0l-.19,0a.53.53,0,0,1-.17-.08.37.37,0,0,1-.12-.13.38.38,0,0,1-.05-.19.41.41,0,0,1,.05-.19.72.72,0,0,1,.11-.19.75.75,0,0,1,.15-.16,1.09,1.09,0,0,1,.17-.13h0l-.25-.65h-1.27l-.24.65h-.86l1.37-3.28h.77l1.36,3.28h-.45a1.55,1.55,0,0,0-.29.28.38.38,0,0,0-.13.26.17.17,0,0,0,0,.12.21.21,0,0,0,.13,0l.13,0,.12-.06Zm-1.47-3.3-.41,1.12h.82Z"/><path class="cls-1" d="M35,39.64l6.15,5.74-5.83,3.73L47.68,66.35l16.16-23.1.07-10.36Zm13.54,15L45.9,48,40.1,52.4,38,49.6l6-4.17-5.56-4.88,23-5.33Z"/></svg>