<svg id="Warstwa_1" data-name="Warstwa 1" xmlns="http://www.w3.org/2000/svg" xmlns:xlink="http://www.w3.org/1999/xlink" viewBox="0 0 310 237"><defs><style>.cls-1,.cls-2{fill:none;}.cls-2{clip-rule:evenodd;}.cls-3{clip-path:url(#clip-path);}.cls-4{clip-path:url(#clip-path-2);}.cls-5{clip-path:url(#clip-path-3);}.cls-6{clip-path:url(#clip-path-4);}.cls-7{fill:#4881ae;}.cls-8{fill:#034f8e;}.cls-9{fill:#e52521;}.cls-10{fill:#fff;}.cls-11{clip-path:url(#clip-path-5);}.cls-12{clip-path:url(#clip-path-6);}.cls-13{clip-path:url(#clip-path-7);}.cls-14{clip-path:url(#clip-path-8);}.cls-15{clip-path:url(#clip-path-9);}.cls-16{clip-path:url(#clip-path-10);}.cls-17{clip-path:url(#clip-path-11);}.cls-18{clip-path:url(#clip-path-12);}.cls-19{clip-path:url(#clip-path-13);}.cls-20{clip-path:url(#clip-path-14);}.cls-21{clip-path:url(#clip-path-15);}.cls-22{clip-path:url(#clip-path-16);}.cls-23{clip-path:url(#clip-path-17);}.cls-24{clip-path:url(#clip-path-18);}.cls-25{clip-path:url(#clip-path-19);}.cls-26{clip-path:url(#clip-path-20);}.cls-27{clip-path:url(#clip-path-21);}.cls-28{clip-path:url(#clip-path-22);}.cls-29{clip-path:url(#clip-path-23);}.cls-30{clip-path:url(#clip-path-24);}.cls-31{clip-path:url(#clip-path-25);}.cls-32{clip-path:url(#clip-path-26);}.cls-33{clip-path:url(#clip-path-27);}.cls-34{clip-path:url(#clip-path-28);}.cls-35{clip-path:url(#clip-path-29);}.cls-36{clip-path:url(#clip-path-30);}</style><clipPath id="clip-path"><ellipse class="cls-1" cx="634.54" cy="655.96" rx="101.5" ry="101"/></clipPath><clipPath id="clip-path-2"><ellipse class="cls-1" cx="-328.46" cy="655.96" rx="101.5" ry="101"/></clipPath><clipPath id="clip-path-3"><ellipse class="cls-1" cx="-7.46" cy="655.96" rx="101.5" ry="101"/></clipPath><clipPath id="clip-path-4"><ellipse class="cls-1" cx="313.54" cy="655.96" rx="101.5" ry="101"/></clipPath><clipPath id="clip-path-5"><rect class="cls-1" x="1391.14" y="1400.26" width="595.06" height="149.99" rx="11.07"/></clipPath><clipPath id="clip-path-6"><rect class="cls-1" x="1360.4" y="1579.79" width="661.16" height="1.06"/></clipPath><clipPath id="clip-path-7"><rect class="cls-1" x="1360.4" y="1549.95" width="661.16" height="1.06"/></clipPath><clipPath id="clip-path-8"><rect class="cls-1" x="1360.4" y="1520.1" width="661.16" height="1.06"/></clipPath><clipPath id="clip-path-9"><rect class="cls-1" x="1360.4" y="1490.25" width="661.16" height="1.06"/></clipPath><clipPath id="clip-path-10"><rect class="cls-1" x="1360.4" y="1460.41" width="661.16" height="1.06"/></clipPath><clipPath id="clip-path-11"><rect class="cls-1" x="1360.4" y="1430.56" width="661.16" height="1.06"/></clipPath><clipPath id="clip-path-12"><rect class="cls-1" x="1360.4" y="1400.71" width="661.16" height="1.06"/></clipPath><clipPath id="clip-path-13"><rect class="cls-1" x="1360.4" y="1370.87" width="661.16" height="1.06"/></clipPath><clipPath id="clip-path-14"><rect class="cls-1" x="1360.4" y="1341.02" width="661.16" height="1.06"/></clipPath><clipPath id="clip-path-15"><rect class="cls-1" x="1360.4" y="1311.17" width="661.16" height="1.06"/></clipPath><clipPath id="clip-path-16"><rect class="cls-1" x="1360.4" y="1281.33" width="661.16" height="1.06"/></clipPath><clipPath id="clip-path-17"><rect class="cls-1" x="1360.4" y="1251.48" width="661.16" height="1.06"/></clipPath><clipPath id="clip-path-18"><rect class="cls-1" x="1360.4" y="1221.64" width="661.16" height="1.06"/></clipPath><clipPath id="clip-path-19"><rect class="cls-1" x="1360.4" y="1191.79" width="661.16" height="1.06"/></clipPath><clipPath id="clip-path-20"><rect class="cls-1" x="1360.4" y="1161.94" width="661.16" height="1.06"/></clipPath><clipPath id="clip-path-21"><rect class="cls-1" x="1360.4" y="1132.1" width="661.16" height="1.06"/></clipPath><clipPath id="clip-path-22"><rect class="cls-1" x="1807.39" y="1194.94" width="178.27" height="181.96" rx="13.52"/></clipPath><clipPath id="clip-path-23"><rect class="cls-1" x="1390.6" y="1194.94" width="178.27" height="181.96" rx="13.52"/></clipPath><clipPath id="clip-path-24"><rect class="cls-1" x="1599.61" y="1194.94" width="178.27" height="181.96" rx="13.52"/></clipPath><clipPath id="clip-path-25"><rect class="cls-1" x="1622.28" y="1230.59" width="130.32" height="111.88"/></clipPath><clipPath id="clip-path-26"><rect class="cls-1" x="1831.28" y="1230.59" width="130.32" height="111.88"/></clipPath><clipPath id="clip-path-27"><rect class="cls-1" x="1414.5" y="1230.59" width="130.32" height="111.88"/></clipPath><clipPath id="clip-path-28"><rect class="cls-1" x="1854.64" y="1249.92" width="82.37" height="71.31"/></clipPath><clipPath id="clip-path-29"><rect class="cls-1" x="1433.85" y="1247.8" width="93.44" height="79.91"/></clipPath><clipPath id="clip-path-30"><path class="cls-2" d="M1653.05,1288c-.07-18.33,13.12-31.58,31.42-31.56,17.91,0,31.76,13.89,31.61,31.68a31.79,31.79,0,0,1-31.21,31.34h-.4C1666.81,1319.46,1653.12,1305.78,1653.05,1288Zm31.14-39.29c-20.74.09-38.81,18.32-38.88,39.07v.59c.27,20.76,18,38.11,39,38.13h.12a38.62,38.62,0,0,0,38.65-38.4v-.67c-.18-21-17.69-38.64-38.61-38.72Z"/></clipPath></defs><title>funkcje2</title><rect class="cls-7" width="310" height="237"/><rect class="cls-8" x="26.48" y="150.88" width="79.73" height="9.98" rx="4.18" transform="translate(-89.52 222.22) rotate(-90)"/><rect class="cls-9" x="12.76" y="116.32" width="148.73" height="10.09" rx="5.04" transform="translate(-34.24 208.49) rotate(-90)"/><rect class="cls-8" x="108.75" y="170.88" width="39.73" height="9.98" rx="2.76" transform="translate(-47.25 304.48) rotate(-90)"/><rect class="cls-9" x="92.52" y="133.82" width="113.73" height="10.09" rx="4.54" transform="translate(10.52 288.26) rotate(-90)"/><rect class="cls-8" x="121.01" y="120.88" width="139.73" height="9.98" rx="4.85" transform="translate(65.01 316.75) rotate(-90)"/><rect class="cls-9" x="190.29" y="169.32" width="42.73" height="10.09" rx="2.79" transform="translate(37.29 386.02) rotate(-90)"/><rect class="cls-10" x="77.53" y="160.38" width="60.73" height="9.98" rx="3.65" transform="translate(-57.47 273.26) rotate(-90)"/><rect class="cls-10" x="127.79" y="148.38" width="84.73" height="9.98" rx="4.31" transform="translate(16.79 323.53) rotate(-90)"/><rect class="cls-10" x="177.61" y="135.82" width="109.73" height="10.09" rx="4.46" transform="translate(91.61 373.35) rotate(-90)"/></svg>