<svg id="Warstwa_1" data-name="Warstwa 1" xmlns="http://www.w3.org/2000/svg" xmlns:xlink="http://www.w3.org/1999/xlink" viewBox="0 0 310 237"><defs><style>.cls-1,.cls-2{fill:none;}.cls-2{clip-rule:evenodd;}.cls-3{clip-path:url(#clip-path);}.cls-4{clip-path:url(#clip-path-2);}.cls-5{clip-path:url(#clip-path-3);}.cls-6{clip-path:url(#clip-path-4);}.cls-7{fill:#4881ae;}.cls-8{fill:#e52521;}.cls-9{fill:#014e8d;}.cls-10{fill:#fff;}.cls-11{clip-path:url(#clip-path-5);}.cls-12{clip-path:url(#clip-path-6);}.cls-13{clip-path:url(#clip-path-7);}.cls-14{clip-path:url(#clip-path-8);}.cls-15{clip-path:url(#clip-path-9);}.cls-16{clip-path:url(#clip-path-10);}.cls-17{clip-path:url(#clip-path-11);}.cls-18{clip-path:url(#clip-path-12);}.cls-19{clip-path:url(#clip-path-13);}.cls-20{clip-path:url(#clip-path-14);}.cls-21{clip-path:url(#clip-path-15);}.cls-22{clip-path:url(#clip-path-16);}.cls-23{clip-path:url(#clip-path-17);}.cls-24{clip-path:url(#clip-path-18);}.cls-25{clip-path:url(#clip-path-19);}.cls-26{clip-path:url(#clip-path-20);}.cls-27{clip-path:url(#clip-path-21);}.cls-28{clip-path:url(#clip-path-22);}.cls-29{clip-path:url(#clip-path-23);}.cls-30{clip-path:url(#clip-path-24);}.cls-31{clip-path:url(#clip-path-25);}.cls-32{clip-path:url(#clip-path-26);}.cls-33{clip-path:url(#clip-path-27);}.cls-34{clip-path:url(#clip-path-28);}.cls-35{clip-path:url(#clip-path-29);}.cls-36{clip-path:url(#clip-path-30);}.cls-37{clip-path:url(#clip-path-31);}</style><clipPath id="clip-path"><ellipse class="cls-1" cx="296.54" cy="655.96" rx="101.5" ry="101"/></clipPath><clipPath id="clip-path-2"><ellipse class="cls-1" cx="-666.46" cy="655.96" rx="101.5" ry="101"/></clipPath><clipPath id="clip-path-3"><ellipse class="cls-1" cx="-345.46" cy="655.96" rx="101.5" ry="101"/></clipPath><clipPath id="clip-path-4"><ellipse class="cls-1" cx="-24.46" cy="655.96" rx="101.5" ry="101"/></clipPath><clipPath id="clip-path-5"><rect class="cls-1" x="1053.14" y="1400.26" width="595.06" height="149.99" rx="11.07"/></clipPath><clipPath id="clip-path-6"><rect class="cls-1" x="1045.76" y="1592.43" width="661.16" height="1.06"/></clipPath><clipPath id="clip-path-7"><rect class="cls-1" x="1022.4" y="1579.79" width="661.16" height="1.06"/></clipPath><clipPath id="clip-path-8"><rect class="cls-1" x="1022.4" y="1549.95" width="661.16" height="1.06"/></clipPath><clipPath id="clip-path-9"><rect class="cls-1" x="1022.4" y="1520.1" width="661.16" height="1.06"/></clipPath><clipPath id="clip-path-10"><rect class="cls-1" x="1022.4" y="1490.25" width="661.16" height="1.06"/></clipPath><clipPath id="clip-path-11"><rect class="cls-1" x="1022.4" y="1460.41" width="661.16" height="1.06"/></clipPath><clipPath id="clip-path-12"><rect class="cls-1" x="1022.4" y="1430.56" width="661.16" height="1.06"/></clipPath><clipPath id="clip-path-13"><rect class="cls-1" x="1022.4" y="1400.71" width="661.16" height="1.06"/></clipPath><clipPath id="clip-path-14"><rect class="cls-1" x="1022.4" y="1370.87" width="661.16" height="1.06"/></clipPath><clipPath id="clip-path-15"><rect class="cls-1" x="1022.4" y="1341.02" width="661.16" height="1.06"/></clipPath><clipPath id="clip-path-16"><rect class="cls-1" x="1022.4" y="1311.17" width="661.16" height="1.06"/></clipPath><clipPath id="clip-path-17"><rect class="cls-1" x="1022.4" y="1281.33" width="661.16" height="1.06"/></clipPath><clipPath id="clip-path-18"><rect class="cls-1" x="1022.4" y="1251.48" width="661.16" height="1.06"/></clipPath><clipPath id="clip-path-19"><rect class="cls-1" x="1022.4" y="1221.64" width="661.16" height="1.06"/></clipPath><clipPath id="clip-path-20"><rect class="cls-1" x="1022.4" y="1191.79" width="661.16" height="1.06"/></clipPath><clipPath id="clip-path-21"><rect class="cls-1" x="1022.4" y="1161.94" width="661.16" height="1.06"/></clipPath><clipPath id="clip-path-22"><rect class="cls-1" x="1022.4" y="1132.1" width="661.16" height="1.06"/></clipPath><clipPath id="clip-path-23"><rect class="cls-1" x="1469.39" y="1194.94" width="178.27" height="181.96" rx="13.52"/></clipPath><clipPath id="clip-path-24"><rect class="cls-1" x="1052.6" y="1194.94" width="178.27" height="181.96" rx="13.52"/></clipPath><clipPath id="clip-path-25"><rect class="cls-1" x="1261.61" y="1194.94" width="178.27" height="181.96" rx="13.52"/></clipPath><clipPath id="clip-path-26"><rect class="cls-1" x="1284.28" y="1230.59" width="130.32" height="111.88"/></clipPath><clipPath id="clip-path-27"><rect class="cls-1" x="1493.28" y="1230.59" width="130.32" height="111.88"/></clipPath><clipPath id="clip-path-28"><rect class="cls-1" x="1076.5" y="1230.59" width="130.32" height="111.88"/></clipPath><clipPath id="clip-path-29"><rect class="cls-1" x="1516.64" y="1249.92" width="82.37" height="71.31"/></clipPath><clipPath id="clip-path-30"><rect class="cls-1" x="1095.85" y="1247.8" width="93.44" height="79.91"/></clipPath><clipPath id="clip-path-31"><path class="cls-2" d="M1315.05,1288c-.07-18.33,13.12-31.58,31.42-31.56,17.91,0,31.76,13.89,31.61,31.68a31.79,31.79,0,0,1-31.21,31.34h-.4C1328.81,1319.46,1315.12,1305.78,1315.05,1288Zm31.14-39.29c-20.74.09-38.81,18.32-38.88,39.07v.59c.27,20.76,18,38.11,39,38.13h.12a38.62,38.62,0,0,0,38.65-38.4v-.67c-.18-21-17.69-38.64-38.61-38.72Z"/></clipPath></defs><title>funkcje3</title><rect class="cls-7" width="310" height="237"/><path class="cls-8" d="M154.5,121.3a3.92,3.92,0,0,1-2.5-6.94l77-63.89a3.92,3.92,0,1,1,5,6l-77,63.9A3.94,3.94,0,0,1,154.5,121.3Z"/><path class="cls-8" d="M79.5,184.08a3.92,3.92,0,0,1-2.5-6.94l77-63.9a3.92,3.92,0,0,1,5,6L82,183.17A3.89,3.89,0,0,1,79.5,184.08Z"/><path class="cls-9" d="M231,188a3.9,3.9,0,0,1-2.55-.94L75.45,55.9A3.92,3.92,0,1,1,80.55,50L227.11,175.58l.47-122.11a3.92,3.92,0,0,1,3.92-3.91h0a3.92,3.92,0,0,1,3.91,3.94l-.5,130.59a3.93,3.93,0,0,1-2.29,3.56A4.05,4.05,0,0,1,231,188Z"/><path class="cls-9" d="M231.5,57.41H78.5a3.93,3.93,0,0,1,0-7.85h153a3.93,3.93,0,0,1,0,7.85Z"/><path class="cls-9" d="M231.5,185.2H78.5a3.92,3.92,0,0,1,0-7.84h153a3.92,3.92,0,0,1,0,7.84Z"/><path class="cls-9" d="M77.5,185.2a3.92,3.92,0,0,1-3.92-3.92V49a3.92,3.92,0,0,1,7.84,0V181.28A3.92,3.92,0,0,1,77.5,185.2Z"/><circle class="cls-10" cx="78.5" cy="53.5" r="20.5"/><circle class="cls-10" cx="78.5" cy="180.5" r="20.5"/><circle class="cls-10" cx="231.5" cy="180.5" r="20.5"/><circle class="cls-10" cx="231.5" cy="49.5" r="20.5"/><circle class="cls-10" cx="152.5" cy="119.5" r="20.5"/></svg>