<svg id="Warstwa_1" data-name="Warstwa 1" xmlns="http://www.w3.org/2000/svg" xmlns:xlink="http://www.w3.org/1999/xlink" viewBox="0 0 310 237"><defs><style>.cls-1{fill:none;}.cls-2{clip-path:url(#clip-path);}.cls-3{clip-path:url(#clip-path-2);}.cls-4{clip-path:url(#clip-path-3);}.cls-5{fill:#4881ae;}.cls-6{fill:#fff;}.cls-7{fill:#034f8e;}.cls-8{fill:#e52521;}</style><clipPath id="clip-path"><ellipse class="cls-1" cx="10.54" cy="655.96" rx="101.5" ry="101"/></clipPath><clipPath id="clip-path-2"><ellipse class="cls-1" cx="331.54" cy="655.96" rx="101.5" ry="101"/></clipPath><clipPath id="clip-path-3"><ellipse class="cls-1" cx="652.54" cy="655.96" rx="101.5" ry="101"/></clipPath></defs><title>funkcje1</title><rect class="cls-5" width="310" height="237"/><rect class="cls-6" x="47" y="31.69" width="46.9" height="46.9" rx="6.95"/><rect class="cls-7" x="108.89" y="39.1" width="113.69" height="9.98" rx="4.99"/><rect class="cls-7" x="108.89" y="59.46" width="140.12" height="10.09" rx="5.04"/><rect class="cls-6" x="47" y="94.05" width="46.9" height="46.9" rx="6.95"/><rect class="cls-7" x="108.89" y="101.45" width="102.86" height="9.98" rx="4.74"/><rect class="cls-7" x="108.89" y="121.81" width="86.4" height="10.09" rx="3.96"/><rect class="cls-6" x="47" y="156.41" width="46.9" height="46.9" rx="6.95"/><rect class="cls-7" x="108.89" y="163.81" width="148.11" height="9.98" rx="4.99"/><rect class="cls-7" x="108.89" y="184.17" width="92.98" height="10.09" rx="4.11"/><path class="cls-8" d="M70.45,193a3.7,3.7,0,0,1-2.76-1.23l-14-15.63a3.7,3.7,0,0,1,5.52-4.94L70.1,183.38l24.48-34.86a3.7,3.7,0,0,1,6.06,4.25L73.48,191.45A3.72,3.72,0,0,1,70.67,193Z"/></svg>