<svg id="Warstwa_1" data-name="Warstwa 1" xmlns="http://www.w3.org/2000/svg" xmlns:xlink="http://www.w3.org/1999/xlink" viewBox="0 0 203 202"><defs><style>.cls-1{fill:none;}.cls-2{clip-path:url(#clip-path);}.cls-3{clip-path:url(#clip-path-2);}.cls-4{clip-path:url(#clip-path-3);}.cls-5{fill:#014e8d;}.cls-6{clip-path:url(#clip-path-4);}.cls-7{fill:#fff;}.cls-8{fill:#e52521;}</style><clipPath id="clip-path"><ellipse class="cls-1" cx="-219.5" cy="101" rx="101.5" ry="101"/></clipPath><clipPath id="clip-path-2"><ellipse class="cls-1" cx="101.5" cy="101" rx="101.5" ry="101"/></clipPath><clipPath id="clip-path-3"><rect class="cls-1" x="-246" y="-4742" width="1440" height="7059"/></clipPath><clipPath id="clip-path-4"><ellipse class="cls-1" cx="422.5" cy="101" rx="101.5" ry="101"/></clipPath></defs><title>proces1</title><g class="cls-3"><g class="cls-4"><rect class="cls-5" x="-5" y="-5" width="213" height="212"/></g></g><path class="cls-7" d="M121.54,149.55H83.1a18.39,18.39,0,0,1-18.37-18.37V70.28A18.39,18.39,0,0,1,83.1,51.91h38.44A18.38,18.38,0,0,1,139.9,70.28v60.9A18.38,18.38,0,0,1,121.54,149.55ZM83.1,56.23a14.07,14.07,0,0,0-14,14.05v60.9a14.06,14.06,0,0,0,14,14h38.44a14.06,14.06,0,0,0,14-14V70.28a14.07,14.07,0,0,0-14-14.05Z"/><path class="cls-8" d="M113,73.51H79a2.16,2.16,0,1,1,0-4.32h34a2.16,2.16,0,1,1,0,4.32Z"/><path class="cls-8" d="M96,88.2H79.42a2.16,2.16,0,1,1,0-4.32H96a2.16,2.16,0,0,1,0,4.32Z"/><path class="cls-7" d="M124,102.89H79.85a2.16,2.16,0,0,1,0-4.32H124a2.16,2.16,0,0,1,0,4.32Z"/><path class="cls-7" d="M112,117.58H80.28a2.16,2.16,0,0,1,0-4.32H112a2.16,2.16,0,0,1,0,4.32Z"/><path class="cls-7" d="M120.42,132.27H80.72a2.16,2.16,0,0,1,0-4.32h39.7a2.16,2.16,0,0,1,0,4.32Z"/></svg>