<svg id="Warstwa_1" data-name="Warstwa 1" xmlns="http://www.w3.org/2000/svg" xmlns:xlink="http://www.w3.org/1999/xlink" viewBox="0 0 203 202"><defs><style>.cls-1,.cls-2{fill:none;}.cls-2{clip-rule:evenodd;}.cls-3{clip-path:url(#clip-path);}.cls-4{clip-path:url(#clip-path-2);}.cls-5{fill:#034f8e;}.cls-6{fill:#014e8d;}.cls-7{fill:#e52521;}.cls-8{fill:#fff;}.cls-9{clip-path:url(#clip-path-3);}.cls-10{clip-path:url(#clip-path-4);}.cls-11{clip-path:url(#clip-path-5);}.cls-12{clip-path:url(#clip-path-6);}.cls-13{clip-path:url(#clip-path-7);}.cls-14{clip-path:url(#clip-path-8);}.cls-15{clip-path:url(#clip-path-9);}.cls-16{clip-path:url(#clip-path-10);}.cls-17{clip-path:url(#clip-path-11);}.cls-18{clip-path:url(#clip-path-12);}.cls-19{clip-path:url(#clip-path-13);}.cls-20{clip-path:url(#clip-path-14);}.cls-21{clip-path:url(#clip-path-15);}.cls-22{clip-path:url(#clip-path-16);}.cls-23{clip-path:url(#clip-path-17);}.cls-24{clip-path:url(#clip-path-18);}.cls-25{clip-path:url(#clip-path-19);}.cls-26{clip-path:url(#clip-path-20);}.cls-27{clip-path:url(#clip-path-21);}.cls-28{clip-path:url(#clip-path-22);}.cls-29{clip-path:url(#clip-path-23);}.cls-30{clip-path:url(#clip-path-24);}.cls-31{clip-path:url(#clip-path-25);}.cls-32{clip-path:url(#clip-path-26);}.cls-33{clip-path:url(#clip-path-27);}.cls-34{clip-path:url(#clip-path-28);}.cls-35{clip-path:url(#clip-path-29);}.cls-36{clip-path:url(#clip-path-30);}.cls-37{clip-path:url(#clip-path-31);}.cls-38{clip-path:url(#clip-path-32);}</style><clipPath id="clip-path"><ellipse class="cls-1" cx="101.5" cy="101" rx="101.5" ry="101"/></clipPath><clipPath id="clip-path-2"><rect class="cls-1" x="-246" y="-4742" width="1440" height="7059"/></clipPath><clipPath id="clip-path-3"><ellipse class="cls-1" cx="-861.5" cy="101" rx="101.5" ry="101"/></clipPath><clipPath id="clip-path-4"><ellipse class="cls-1" cx="-540.5" cy="101" rx="101.5" ry="101"/></clipPath><clipPath id="clip-path-5"><ellipse class="cls-1" cx="-219.5" cy="101" rx="101.5" ry="101"/></clipPath><clipPath id="clip-path-6"><rect class="cls-1" x="858.1" y="845.29" width="595.06" height="149.99" rx="11.07"/></clipPath><clipPath id="clip-path-7"><rect class="cls-1" x="850.72" y="1037.46" width="661.16" height="1.06"/></clipPath><clipPath id="clip-path-8"><rect class="cls-1" x="827.36" y="1024.83" width="661.16" height="1.06"/></clipPath><clipPath id="clip-path-9"><rect class="cls-1" x="827.36" y="994.98" width="661.16" height="1.06"/></clipPath><clipPath id="clip-path-10"><rect class="cls-1" x="827.36" y="965.14" width="661.16" height="1.06"/></clipPath><clipPath id="clip-path-11"><rect class="cls-1" x="827.36" y="935.29" width="661.16" height="1.06"/></clipPath><clipPath id="clip-path-12"><rect class="cls-1" x="827.36" y="905.44" width="661.16" height="1.06"/></clipPath><clipPath id="clip-path-13"><rect class="cls-1" x="827.36" y="875.6" width="661.16" height="1.06"/></clipPath><clipPath id="clip-path-14"><rect class="cls-1" x="827.36" y="845.75" width="661.16" height="1.06"/></clipPath><clipPath id="clip-path-15"><rect class="cls-1" x="827.36" y="815.9" width="661.16" height="1.06"/></clipPath><clipPath id="clip-path-16"><rect class="cls-1" x="827.36" y="786.06" width="661.16" height="1.06"/></clipPath><clipPath id="clip-path-17"><rect class="cls-1" x="827.36" y="756.21" width="661.16" height="1.06"/></clipPath><clipPath id="clip-path-18"><rect class="cls-1" x="827.36" y="726.37" width="661.16" height="1.06"/></clipPath><clipPath id="clip-path-19"><rect class="cls-1" x="827.36" y="696.52" width="661.16" height="1.06"/></clipPath><clipPath id="clip-path-20"><rect class="cls-1" x="827.36" y="666.67" width="661.16" height="1.06"/></clipPath><clipPath id="clip-path-21"><rect class="cls-1" x="827.36" y="636.83" width="661.16" height="1.06"/></clipPath><clipPath id="clip-path-22"><rect class="cls-1" x="827.36" y="606.98" width="661.16" height="1.06"/></clipPath><clipPath id="clip-path-23"><rect class="cls-1" x="827.36" y="577.13" width="661.16" height="1.06"/></clipPath><clipPath id="clip-path-24"><rect class="cls-1" x="1274.34" y="639.97" width="178.27" height="181.96" rx="13.52"/></clipPath><clipPath id="clip-path-25"><rect class="cls-1" x="857.56" y="639.97" width="178.27" height="181.96" rx="13.52"/></clipPath><clipPath id="clip-path-26"><rect class="cls-1" x="1066.57" y="639.97" width="178.27" height="181.96" rx="13.52"/></clipPath><clipPath id="clip-path-27"><rect class="cls-1" x="1089.23" y="675.63" width="130.32" height="111.88"/></clipPath><clipPath id="clip-path-28"><rect class="cls-1" x="1298.24" y="675.63" width="130.32" height="111.88"/></clipPath><clipPath id="clip-path-29"><rect class="cls-1" x="881.46" y="675.63" width="130.32" height="111.88"/></clipPath><clipPath id="clip-path-30"><rect class="cls-1" x="1321.6" y="694.95" width="82.37" height="71.31"/></clipPath><clipPath id="clip-path-31"><rect class="cls-1" x="900.81" y="692.84" width="93.44" height="79.91"/></clipPath><clipPath id="clip-path-32"><path class="cls-2" d="M1120,733c-.07-18.33,13.13-31.58,31.43-31.56,17.91,0,31.76,13.89,31.61,31.68a31.8,31.8,0,0,1-31.21,31.34h-.41C1133.77,764.49,1120.08,750.82,1120,733Zm31.14-39.3c-20.73.1-38.8,18.33-38.87,39.08v.59c.27,20.76,18,38.1,39,38.13h.12a38.63,38.63,0,0,0,38.65-38.41v-.67c-.18-21-17.69-38.63-38.62-38.72Z"/></clipPath></defs><title>proces4</title><g class="cls-3"><g class="cls-4"><rect class="cls-5" x="-5" y="-5" width="213" height="212"/></g></g><rect class="cls-6" x="53.47" y="75.14" width="95.33" height="51.18" rx="14.34" transform="translate(243.88 100.45) rotate(135)"/><path class="cls-7" d="M85.53,148.62A16.34,16.34,0,0,1,74,143.83L58,127.92a16.39,16.39,0,0,1,0-23.15l47.13-47.13a16.37,16.37,0,0,1,23.15,0l15.92,15.91a16.39,16.39,0,0,1,0,23.15L97.1,143.83A16.32,16.32,0,0,1,85.53,148.62Zm31.22-91.71a12.29,12.29,0,0,0-8.71,3.6L60.91,107.64a12.32,12.32,0,0,0,0,17.41L76.82,141a12.32,12.32,0,0,0,17.41,0l47.14-47.13a12.34,12.34,0,0,0,0-17.41L125.45,60.5A12.3,12.3,0,0,0,116.75,56.91Z"/><rect class="cls-6" x="53.47" y="75.14" width="95.33" height="51.18" rx="14.34" transform="translate(100.85 -42.01) rotate(45)"/><path class="cls-8" d="M116.75,148.75a16.44,16.44,0,0,1-11.67-4.83h0L58,96.79a16.5,16.5,0,0,1,0-23.33L73.86,57.54a16.52,16.52,0,0,1,23.33,0l47.14,47.14a16.52,16.52,0,0,1,0,23.33l-15.92,15.91A16.42,16.42,0,0,1,116.75,148.75Zm-8.61-7.88a12.19,12.19,0,0,0,17.22,0L141.27,125a12.17,12.17,0,0,0,0-17.22L94.14,60.6a12.19,12.19,0,0,0-17.22,0L61,76.51a12.19,12.19,0,0,0,0,17.22Z"/><path class="cls-8" d="M115.19,100.68a9.68,9.68,0,0,1,2.15,3.18,9,9,0,0,1,.7,3.65,10.83,10.83,0,0,1-.79,3.77,12.11,12.11,0,0,1-2.24,3.59l3.67,4.45-2.17,2.17-3.77-4.55a14.37,14.37,0,0,1-3.53,2.13,10.32,10.32,0,0,1-3.13.82l-2.92-4.63.18-.17a7.13,7.13,0,0,0,4.16-.11,9.45,9.45,0,0,0,3.88-2.38,7.07,7.07,0,0,0,2.3-4.5,5.33,5.33,0,0,0-1.73-4.26,5.17,5.17,0,0,0-2-1.28,7.73,7.73,0,0,0-2.29-.37,16.25,16.25,0,0,0-2.62.19c-.93.15-1.9.28-2.92.4-1.25.16-2.49.35-3.7.56a16,16,0,0,1-3.56.25,11.16,11.16,0,0,1-3.41-.67,9.14,9.14,0,0,1-3.28-2.21,9.93,9.93,0,0,1-2.08-3,9.42,9.42,0,0,1-.78-3.46,10,10,0,0,1,.6-3.63,11.75,11.75,0,0,1,2-3.5L84.23,82.6l2.18-2.17,3.7,4.48a15,15,0,0,1,2.45-1.67,10.88,10.88,0,0,1,2.28-.92l2.88,4-.18.17a7.92,7.92,0,0,0-2.67.57,9.45,9.45,0,0,0-3.06,2.17,7.28,7.28,0,0,0-1.31,1.82,6.46,6.46,0,0,0-.68,2.13,5,5,0,0,0,1.57,4.31,4.61,4.61,0,0,0,2,1.24,8.37,8.37,0,0,0,2.39.33,17,17,0,0,0,2.74-.25c1-.17,2-.31,3.06-.43l3.57-.48a19.53,19.53,0,0,1,3.49-.14,10.6,10.6,0,0,1,3.36.73A9.18,9.18,0,0,1,115.19,100.68Z"/></svg>