<svg id="Warstwa_1" data-name="Warstwa 1" xmlns="http://www.w3.org/2000/svg" xmlns:xlink="http://www.w3.org/1999/xlink" viewBox="0 0 203 202"><defs><style>.cls-1{fill:none;}.cls-2{clip-path:url(#clip-path);}.cls-3{clip-path:url(#clip-path-2);}.cls-4{fill:#034f8e;}.cls-5{clip-path:url(#clip-path-3);}.cls-6{fill:#e52521;}.cls-7{fill:#014e8d;}.cls-8{fill:#fff;}</style><clipPath id="clip-path"><ellipse class="cls-1" cx="101.5" cy="101" rx="101.5" ry="101"/></clipPath><clipPath id="clip-path-2"><rect class="cls-1" x="-246" y="-4742" width="1440" height="7059"/></clipPath><clipPath id="clip-path-3"><ellipse class="cls-1" cx="422.5" cy="101" rx="101.5" ry="101"/></clipPath></defs><title>proces1_1</title><g class="cls-2"><g class="cls-3"><rect class="cls-4" x="-5" y="-5" width="213" height="212"/></g></g><path class="cls-6" d="M132.11,133.57H71.21A18.39,18.39,0,0,1,52.84,115.2V76.76A18.39,18.39,0,0,1,71.21,58.39h60.9a18.39,18.39,0,0,1,18.37,18.37V115.2A18.39,18.39,0,0,1,132.11,133.57ZM71.21,62.71a14.07,14.07,0,0,0-14,14.05V115.2a14.07,14.07,0,0,0,14,14h60.9a14.07,14.07,0,0,0,14-14V76.76a14.07,14.07,0,0,0-14-14.05Z"/><polygon class="cls-7" points="115.33 102.54 126.07 96.39 107.51 85.58 88.95 74.77 88.87 96.25 88.78 117.73 99.53 111.58 108.69 152.51 145.98 131.16 115.33 102.54"/><path class="cls-8" d="M108.69,154.67a2,2,0,0,1-.87-.19,2.14,2.14,0,0,1-1.24-1.5l-8.52-38.07-8.2,4.69a2.16,2.16,0,0,1-3.24-1.88l.17-43a2.14,2.14,0,0,1,1.08-1.87,2.16,2.16,0,0,1,2.16,0l37.13,21.62a2.16,2.16,0,0,1,0,3.74l-8.21,4.7,28.51,26.63a2.16,2.16,0,0,1-.4,3.45l-37.29,21.34A2.15,2.15,0,0,1,108.69,154.67Zm-9.16-45.25a2.15,2.15,0,0,1,.87.18,2.17,2.17,0,0,1,1.24,1.51l8.52,38.07,32.2-18.43-28.51-26.63a2.16,2.16,0,0,1,.4-3.45l7.5-4.3L91.09,78.51,91,114l7.5-4.3A2.14,2.14,0,0,1,99.53,109.42Z"/></svg>